<svg xmlns="http://www.w3.org/2000/svg" viewBox="0 0 1100 440"><defs><linearGradient id="sea" x2="1" y2="1"><stop stop-color="#447f78"/><stop offset="1" stop-color="#a0c7b6"/></linearGradient><linearGradient id="sand" x2="0" y2="1"><stop stop-color="#f2e7ce"/><stop offset="1" stop-color="#d5ba8c"/></linearGradient><pattern id="grain" width="7" height="7" patternUnits="userSpaceOnUse"><circle cx="2" cy="2" r=".65" fill="#fff" opacity=".1"/></pattern></defs><path fill="url(#sea)" d="M0 0h1100v440H0z"/><path d="M410 440Q540 330 780 290T1100 65V440" fill="#bfd5c6"/><path d="M430 440Q570 349 810 311T1100 90V440" fill="#e0e5d0"/><path d="M449 440Q601 360 830 332T1100 118V440" fill="url(#sand)"/><path d="M693 440Q865 362 1100 348V440" fill="#c6ac7d"/><path d="M777 440q158-53 323-46" fill="none" stroke="#eddbb7" stroke-width="3"/><path d="M210 283q168-64 292-29M581 163q127-46 276-40M193 80q113-27 244-17" fill="none" stroke="#daeee2" stroke-width="2" opacity=".23"/><path d="m807 118 20-17 19 20-20-5z" fill="#f7f5e8"/><path d="m827 101-1 37" stroke="#254f48" stroke-width="2"/><path d="m817 139 19 1-9 7z" fill="#305f57"/><path fill="url(#grain)" d="M0 0h1100v440H0z"/></svg>
